<?xml version="1.0" encoding="iso-8859-1"?>
<!-- Generator: Adobe Illustrator 19.0.0, SVG Export Plug-In . SVG Version: 6.00 Build 0)  -->
<svg version="1.1" id="Layer_1" xmlns="http://www.w3.org/2000/svg" xmlns:xlink="http://www.w3.org/1999/xlink" x="0px" y="0px"
	 viewBox="0 0 512.001 512.001" style="enable-background:new 0 0 512.001 512.001;" xml:space="preserve">
<path d="M352.427,90.284c-4.267-2.048-9.387-0.256-11.435,3.925c-2.048,4.267-0.256,9.387,4.011,11.435
	C415.318,139.606,460.8,212.054,460.8,290.134c0,112.896-91.904,204.8-204.8,204.8S51.2,403.03,51.2,290.134
	c0-76.288,43.435-147.029,110.933-181.931v70.997c0,3.243,1.792,6.144,4.693,7.595c1.195,0.597,2.56,0.939,3.84,0.939
	c1.792,0,3.584-0.597,5.12-1.707l103.509-76.885l24.491-18.176c2.304-1.707,3.584-4.437,3.413-7.253
	c-0.171-2.901-1.707-5.461-4.181-6.912l-128-75.605c-2.645-1.536-5.888-1.621-8.619-0.085c-2.645,1.536-4.267,4.352-4.267,7.424
	v81.067c-0.853,0.085-1.792,0.256-2.56,0.683c-76.203,36.864-125.44,115.285-125.44,199.851
	c0,122.368,99.499,221.867,221.867,221.867s221.867-99.499,221.867-221.867C477.867,205.569,428.63,127.062,352.427,90.284z
	 M179.2,23.468l104.021,61.44L263.51,99.585L179.2,162.22V23.468z"/>
<polygon style="fill:#215EFF;" points="283.222,84.908 263.51,99.585 179.2,48.214 179.2,23.468 "/>
<polygon style="fill:#0F7BE4;" points="263.51,99.585 179.2,162.22 179.2,48.214 "/>
<g>
</g>
<g>
</g>
<g>
</g>
<g>
</g>
<g>
</g>
<g>
</g>
<g>
</g>
<g>
</g>
<g>
</g>
<g>
</g>
<g>
</g>
<g>
</g>
<g>
</g>
<g>
</g>
<g>
</g>
</svg>
